Coordinates
version=1
nRows=25
nColumns=28
inDegrees=yes

Units are S.I. units (second, meters, Newtons, ...)
Angles are in degrees.

endheader
time	pelvis_tilt	pelvis_list	pelvis_rotation	pelvis_tx	pelvis_ty	pelvis_tz	hip_flexion_r	hip_adduction_r	hip_rotation_r	knee_angle_r	ankle_angle_r	subtalar_angle_r	mtp_angle_r	hip_flexion_l	hip_adduction_l	hip_rotation_l	knee_angle_l	socket_flexion	socket_adduction	socket_rotation	socket_tx	socket_ty	socket_tz	foot_flex	lumbar_extension	lumbar_bending	lumbar_rotation
      0.31666667	      2.38166662	     -1.72349037	     -4.71279518	     -0.41896120	      1.03121584	      0.26599928	     14.08802117	      1.35682578	     -3.00311800	    -60.73539871	     11.78324787	    -15.85155690	     -5.73032974	     -2.70117610	     -1.04645302	     -7.81817468	     -2.61558106	     -0.37403402	      1.50158405	     16.78332471	      0.00000000	     -0.00867462	      0.00000000	     -0.35721289	    -11.90203468	     -1.47204327	      2.96613570
      0.32083333	      2.41271124	     -1.73025019	     -4.66230020	     -0.41411991	      1.03161577	      0.26590089	     14.61731618	      1.37426880	     -3.04896183	    -60.29877554	     11.84885322	    -15.84836564	     -5.73267276	     -3.02766248	     -1.02581103	     -7.81415773	     -2.65375821	     -0.45264416	      1.48337108	     16.80147272	      0.00000000	     -0.00840636	      0.00000000	     -0.31228787	    -12.03009981	     -1.47067222	      2.94535952
      0.32500000	      2.75590804	     -2.21062817	     -4.23378074	     -0.40850072	      1.03268728	      0.26509121	     14.42610285	      1.78078156	     -3.52569427	    -59.30982072	     12.47356188	    -15.49508536	     -6.30309139	     -3.86787622	     -1.49215987	     -7.71666739	     -2.32752998	     -0.32183390	      1.54128944	     17.08844555	      0.00000000	     -0.00848889	      0.00000000	     -0.11532266	    -12.44491157	     -0.78137586	      2.29310523
      0.32916667	      2.77518715	     -2.21440317	     -4.19236376	     -0.40368657	      1.03296739	      0.26500419	     14.94827567	      1.78104707	     -3.58351731	    -58.81697325	     12.56629467	    -15.51230479	     -6.30651573	     -4.17836500	     -1.47241226	     -7.71758607	     -2.36074891	     -0.38688258	      1.52398345	     17.11020450	      0.00000000	     -0.00832797	      0.00000000	     -0.06765877	    -12.55848106	     -0.78534111	      2.28932975
      0.33333333	      2.75595249	     -2.28236250	     -4.00256679	     -0.39827141	      1.03346020	      0.26478654	     15.28832332	      1.86857518	     -3.71643522	    -57.97711879	     12.87819470	    -15.55550602	     -6.31898404	     -4.50390703	     -1.53092556	     -7.73764589	     -2.31873970	     -0.40905483	      1.51254208	     17.23553498	      0.00000000	     -0.00787030	      0.00000000	      0.10702458	    -12.51161717	     -0.68384116	      2.26349194
      0.33750000	      2.79860136	     -2.72825235	     -3.68539282	     -0.39279547	      1.03376201	      0.26418827	     15.51963507	      2.25703815	     -4.17654809	    -57.12435478	     13.36786649	    -15.50143758	     -6.48828839	     -4.97574972	     -2.00978462	     -7.74059255	     -2.09445996	     -0.33694472	      1.56406894	     17.59586885	      0.00000000	     -0.00829674	      0.00000000	      0.23424575	    -12.59303989	     -0.06029099	      2.02341506
      0.34166667	      2.81805709	     -2.73775805	     -3.61260923	     -0.38775652	      1.03411369	      0.26410784	     15.90505827	      2.27584718	     -4.23519465	    -56.36371347	     13.47354443	    -15.50265040	     -6.54104686	     -5.30670922	     -1.99816685	     -7.74532107	     -2.10895434	     -0.39561949	      1.54013845	     17.60469654	      0.00000000	     -0.00795653	      0.00000000	      0.32474703	    -12.66424318	     -0.04308696	      1.96861808
      0.34583333	      2.83994088	     -2.80720006	     -3.48961337	     -0.38262516	      1.03440098	      0.26393855	     16.24248540	      2.33013853	     -4.38357603	    -55.53197324	     13.66049517	    -15.53665983	     -6.60462513	     -5.66124205	     -2.05926214	     -7.73541013	     -2.08429750	     -0.42932129	      1.53186246	     17.70294648	      0.00000000	     -0.00777390	      0.00000000	      0.45837984	    -12.71481693	      0.05247685	      1.89592646
      0.35000000	      3.33417746	     -3.31952329	     -3.13127163	     -0.37733457	      1.03537436	      0.26338359	     15.90281088	      2.79347020	     -4.83428819	    -54.49828924	     14.68470024	    -15.30360334	    -10.27695480	     -6.90557206	     -2.56075657	     -7.30524383	     -0.99922042	      0.14104449	      1.76632591	     17.54343315	      0.00000000	     -0.00786600	      0.00000000	      0.65714460	    -13.36455809	      0.74508201	      1.45702933
      0.35416667	      3.31088728	     -3.33256808	     -3.02811757	     -0.37219575	      1.03555424	      0.26329144	     16.27337169	      2.79633228	     -4.96224047	    -53.63891010	     14.86526831	    -15.36575873	    -10.27986636	     -7.19972878	     -2.56940089	     -7.31394600	     -1.00714633	      0.05924047	      1.73902308	     17.63120043	      0.00000000	     -0.00760085	      0.00000000	      0.69568960	    -13.35133687	      0.76383270	      1.43835011
      0.35833333	      3.28988982	     -3.34685070	     -2.94246099	     -0.36716681	      1.03566572	      0.26316470	     16.64829735	      2.78859364	     -5.09966415	    -52.76565868	     15.01154481	    -15.42031524	    -10.29024210	     -7.48544092	     -2.57320047	     -7.34209562	     -1.02124685	      0.00552864	      1.72499879	     17.69057534	      0.00000000	     -0.00738894	      0.00000000	      0.80538138	    -13.37337022	      0.80837446	      1.41257598
      0.36250000	      3.35138442	     -3.68940075	     -2.64448418	     -0.36184039	      1.03588980	      0.26268003	     16.77463754	      3.07041110	     -5.53196114	    -51.65103973	     15.16958263	    -15.56791626	    -10.44281322	     -7.91276697	     -2.96486216	     -7.33374075	     -0.92977081	     -0.00960837	      1.74715453	     17.97668436	      0.00000000	     -0.00759686	      0.00000000	      0.92866991	    -13.47170845	      1.29440773	      1.17182368
      0.36666667	      3.33677653	     -3.64435597	     -2.59754676	     -0.35689979	      1.03598810	      0.26269187	     17.12421258	      3.01965644	     -5.61178331	    -50.72115377	     15.27879094	    -15.61878254	    -10.46760321	     -8.20037457	     -2.90563416	     -7.35735402	     -0.95045326	     -0.06817455	      1.72682829	     17.97900510	      0.00000000	     -0.00727548	      0.00000000	      1.03491676	    -13.50159205	      1.25652938	      1.14925302
      0.37083333	      3.31555727	     -3.62277324	     -2.52429340	     -0.35196089	      1.03600554	      0.26265558	     17.46051392	      2.98277004	     -5.73631055	    -49.75578518	     15.40456639	    -15.68878835	    -10.49478250	     -8.48467869	     -2.87922690	     -7.37215686	     -0.94661323	     -0.11036509	      1.71288987	     18.03467843	      0.00000000	     -0.00703706	      0.00000000	      1.15057218	    -13.52545270	      1.24453485	      1.12791734
      0.37500000	      3.43960837	     -4.01956231	     -2.17332010	     -0.34660669	      1.03630372	      0.26210859	     17.41166834	      3.31528377	     -6.22510705	    -48.41474589	     15.46119211	    -15.98673462	    -10.80394381	     -9.02659526	     -3.33963073	     -7.32063563	     -0.70850943	     -0.04326190	      1.77547661	     18.32047943	      0.00000000	     -0.00722454	      0.00000000	      1.28518086	    -13.69265720	      1.79735367	      0.84458102
      0.37916667	      3.41761295	     -3.93929175	     -2.14859225	     -0.34172114	      1.03624120	      0.26217113	     17.73736971	      3.23154558	     -6.29832932	    -47.42338630	     15.57107415	    -16.03490738	    -10.83360992	     -9.31122695	     -3.23940015	     -7.35577559	     -0.71857242	     -0.09864221	      1.75441921	     18.29275440	      0.00000000	     -0.00696589	      0.00000000	      1.39198423	    -13.70189526	      1.71757747	      0.83461680
      0.38333333	      3.39481421	     -3.91960542	     -2.02784005	     -0.33662855	      1.03622264	      0.26218092	     17.97020025	      3.20967230	     -6.43848885	    -46.29293763	     15.69120088	    -16.13784826	    -10.90857835	     -9.63110479	     -3.24232392	     -7.31478262	     -0.64178229	     -0.11900719	      1.75856158	     18.43424888	      0.00000000	     -0.00663508	      0.00000000	      1.54783954	    -13.67947776	      1.69478813	      0.81304264
      0.38750000	      3.36263663	     -3.90174663	     -1.93666695	     -0.33160096	      1.03612580	      0.26212340	     18.21822261	      3.17082023	     -6.60659441	    -45.14476455	     15.79634856	    -16.22897650	    -10.97758851	     -9.92945041	     -3.22391426	     -7.34041584	     -0.58344509	     -0.13247287	      1.76195173	     18.49405845	      0.00000000	     -0.00642443	      0.00000000	      1.66561053	    -13.66582397	      1.69823077	      0.78755225
      0.39166667	      3.33455693	     -3.93499995	     -1.79954531	     -0.32657961	      1.03600334	      0.26204212	     18.41682935	      3.18540732	     -6.80657713	    -43.92366660	     15.87572850	    -16.34308479	    -11.08353458	    -10.24934880	     -3.28027485	     -7.32348217	     -0.46718225	     -0.12024230	      1.78046123	     18.63381631	      0.00000000	     -0.00628015	      0.00000000	      1.80011062	    -13.66595345	      1.75624757	      0.74049382
      0.39583333	      3.69816766	     -4.28402224	     -1.55997773	     -0.32150216	      1.03648084	      0.26174040	     18.04002901	      3.53720310	     -7.10769462	    -42.40160965	     15.84347245	    -16.83622241	    -12.13200099	    -11.25570967	     -3.64818723	     -7.08715888	      0.38598977	      0.31594007	      1.98539203	     18.50241856	      0.00000000	     -0.00625083	      0.00000000	      1.90793054	    -14.12968522	      2.23967927	      0.50011989
      0.40000000	      3.61304336	     -4.17366054	     -1.54118037	     -0.31657869	      1.03617203	      0.26184283	     18.33992178	      3.41883965	     -7.21140941	    -41.24852057	     15.97642264	    -16.83992439	    -12.15404834	    -11.48014555	     -3.52373684	     -7.14102955	      0.39511426	      0.27775993	      1.98443913	     18.48940354	      0.00000000	     -0.00602581	      0.00000000	      2.01916992	    -14.06490574	      2.12428368	      0.51321469
      0.40416667	      3.49179527	     -4.28111746	     -1.35059838	     -0.31133115	      1.03582576	      0.26166896	     18.52723769	      3.50752802	     -7.47980282	    -39.85508881	     16.02907185	    -16.87720336	    -12.36003267	    -11.74355503	     -3.67724069	     -7.09022098	      0.62300320	      0.36304595	      2.03551186	     18.67517169	      0.00000000	     -0.00597616	      0.00000000	      2.16375330	    -13.91723483	      2.28148970	      0.47358625
      0.40833333	      3.41518677	     -4.14785230	     -1.32861143	     -0.30643859	      1.03547645	      0.26179688	     18.78049081	      3.37860524	     -7.56750157	    -38.63267875	     16.15159655	    -16.89323558	    -12.39177092	    -11.97460233	     -3.53406168	     -7.12728609	      0.63837754	      0.33171379	      2.02746308	     18.66759262	      0.00000000	     -0.00571408	      0.00000000	      2.27298292	    -13.85977862	      2.14129816	      0.46853184
      0.41250000	      3.41308739	     -4.27087793	     -1.12905726	     -0.30139352	      1.03528506	      0.26173885	     18.78228416	      3.53150913	     -7.73910011	    -37.10397157	     16.13013337	    -17.11446845	    -12.81760752	    -12.39713449	     -3.71130430	     -6.95229161	      0.99468357	      0.49204095	      2.12205213	     18.69663440	      0.00000000	     -0.00562152	      0.00000000	      2.40794072	    -13.88781552	      2.31702553	      0.28992278
      0.41666667	      3.31504388	     -4.12250830	     -1.10682765	     -0.29645439	      1.03480836	      0.26180863	     19.03088291	      3.37221590	     -7.86103456	    -35.85816760	     16.25187516	    -17.10877456	    -12.84077053	    -12.60677521	     -3.54080095	     -7.01910566	      1.01393478	      0.47265289	      2.11188819	     18.68774069	      0.00000000	     -0.00540545	      0.00000000	      2.51421957	    -13.80750975	      2.16492293	      0.31182385
